<svg xmlns="http://www.w3.org/2000/svg" viewBox="0 0 32 32">
  <rect width="32" height="32" rx="8" fill="#6D28D9"/>
  <g fill="#fff" transform="translate(6 2.5) scale(0.78)">
    <circle cx="16.4" cy="4.8" r="2.9"/>
    <ellipse cx="16.4" cy="14" rx="8.8" ry="7.2"/>
    <path d="M24.4 11c3-.5 5 1 5.4 3.4.3 1.9-.6 3.6-2 4.2-.2-3.4-1.5-5.9-3.4-7.6z"/>
    <path d="M16.4 19.6c-6.9 0-11.2 3-11.2 6.9 0 3.4 3.3 5.4 8 5.9l-1.7 5.1c-.3.9.8 1.6 1.5 1l4.6-3.9c.4 0 .8.1 1.2.1 6.9 0 11.2-3 11.2-6.9 0-3.9-4.3-6.9-11.2-6.9z"/>
    <path d="M8 33.4c-3.4.6-6-.6-6.6-3-.4-1.8.4-3.6 1.9-4.3-1 2.5 0 4.6 2.4 5.4 1.2.4 2 .8 2.3 1.9z"/>
  </g>
</svg>
